<svg width="571" height="441" viewBox="0 0 571 441" fill="none" xmlns="http://www.w3.org/2000/svg">
<path d="M540 58H62V328H540V58Z" fill="#F2F2F2"/>
<path opacity="0.3" d="M262 104H107V303H262V104Z" fill="#6C63FF"/>
<path d="M446 119H321V126H446V119Z" fill="#4C4A65"/>
<path d="M502 131H321V139H502V131Z" fill="#4C4A65"/>
<path d="M446 163H321V171H446V163Z" fill="#4C4A65"/>
<path d="M446 217H321V224H446V217Z" fill="#4C4A65"/>
<path d="M502 177H321V184H502V177Z" fill="#4C4A65"/>
<path d="M502 190H321V198H502V190Z" fill="#4C4A65"/>
<path d="M502 203H321V210H502V203Z" fill="#4C4A65"/>
<path d="M386 249H321V267H386V249Z" fill="#7A57D1"/>
<path d="M272 94H118V292H272V94Z" fill="#4C4A65"/>
<path d="M251 203.469C251 242.405 228.838 256 201.5 256C174.162 256 152 242.405 152 203.469C152 164.533 201.5 115 201.5 115C201.5 115 251 164.533 251 203.469Z" fill="#5BE7C4"/>
<path d="M199.655 249.653L200.156 217.161L221 176.964L200.234 212.064L200.46 197.455L214.825 168.373L200.519 193.588V193.589L200.924 167.313L216.307 144.16L200.988 163.181L201.241 115L199.651 178.783L199.782 176.151L184.142 150.916L199.531 181.202L198.073 210.548L198.03 209.769L180 183.213L197.976 212.521L197.793 216.191L197.761 216.246L197.775 216.548L194.078 291H199.018L199.611 252.544L217.542 223.308L199.655 249.653Z" fill="#3F3D56"/>
<path d="M69 441C107.108 441 138 436.971 138 432C138 427.029 107.108 423 69 423C30.8924 423 0 427.029 0 432C0 436.971 30.8924 441 69 441Z" fill="#3F3D56"/>
<path d="M37.1818 173L35 178.616L37.4545 214.975C37.4545 214.975 36.0909 217.044 37.4545 218.522C38.8182 220 38.5455 220.591 38.5455 220.591C38.5455 220.591 36.3636 220.591 37.4545 222.365C38.5455 224.138 38.5455 225.025 38.5455 225.025L38 226.799C38 226.799 39.0909 228.277 39.0909 229.459C39.0909 230.642 46.1818 267 46.1818 267L53 252.516L49.1818 194.874L37.1818 173Z" fill="#7A57D1"/>
<path d="M112.038 265C112.038 265 123.585 274.054 123.992 281.294C124.399 288.534 109.106 270.512 109.003 268.481C108.899 266.45 112.038 265 112.038 265Z" fill="#FFB9B9"/>
<path d="M32.7771 411L29.6151 422.244C29.6151 422.244 25.0159 433.176 31.3398 434.738C37.6638 436.3 43.7004 430.365 43.7004 430.365V422.869L46 411H32.7771Z" fill="#2F2E41"/>
<path d="M84.3291 411C84.3291 411 82.8778 431.747 86.0706 432.967C89.2633 434.188 100.583 434.493 100.873 432.967C101.164 431.442 104.647 429.916 102.034 427.78C99.422 425.645 97.6806 413.136 97.6806 413.136L84.3291 411Z" fill="#2F2E41"/>
<path d="M55.6211 218.846V227.816C55.6211 227.816 46.1802 248.446 42.7471 281.037C39.314 313.627 27.5844 412.893 30.4452 414.687C33.3061 416.481 64.2038 417.677 65.062 415.285C65.9202 412.893 66.7785 342.929 66.7785 342.929L77.3638 293.594C77.3638 293.594 79.3665 311.235 81.083 314.225C82.7995 317.215 78.2221 414.388 81.083 415.883C83.9439 417.378 122.566 420.069 121.994 415.285C121.422 410.501 108.548 280.738 108.548 280.738C108.548 280.738 101.967 219.444 99.9649 218.846C97.9623 218.248 79.6526 217.65 76.7917 218.248C73.9308 218.846 55.6211 218.846 55.6211 218.846Z" fill="#4C4A65"/>
<path d="M76.5 144C85.6127 144 93 136.613 93 127.5C93 118.387 85.6127 111 76.5 111C67.3873 111 60 118.387 60 127.5C60 136.613 67.3873 144 76.5 144Z" fill="#FFB9B9"/>
<path d="M81 141.917C81 141.917 72.5417 155.398 74.5833 158.993C76.625 162.588 53 155.398 53 155.398C53 155.398 67.2917 137.424 67 135.327C66.7083 133.23 81 141.917 81 141.917Z" fill="#FFB9B9"/>
<path d="M97 161.654C97 161.654 82.1982 156.464 80.2432 154.327C78.9891 152.927 77.8664 151.393 76.8919 149.748C76.8919 149.748 59.018 147 58.4595 147C57.9009 147 53.7117 152.495 52.5946 153.716C51.4775 154.938 37.2342 163.181 37.2342 165.318C37.2342 167.455 35 178.445 35 178.445C35 178.445 40.027 189.741 43.0991 192.183C46.1712 194.626 47.009 194.015 47.2883 197.984C47.5676 201.953 51.4775 208.364 51.4775 208.364C51.4775 208.364 53.991 215.386 53.4324 217.523C52.8739 219.66 50.3604 221.492 56.2252 220.881C62.0901 220.27 91.1351 222.102 91.1351 218.744C91.1351 215.386 85.5496 183.33 85.5496 183.33L97 161.654Z" fill="#7A57D1"/>
<path d="M91.9275 161.603L97.3068 161C97.3068 161 99.2887 162.207 99.5718 173.975C99.8549 185.743 99.8549 214.107 101.837 216.521C103.819 218.935 112.029 256.351 112.029 256.351C112.029 256.351 114.294 256.955 114.294 259.067C114.294 261.179 116.842 262.99 115.71 265.404C114.577 267.818 116.842 267.214 115.427 268.723C114.011 270.232 107.216 273.249 106.933 271.439C106.65 269.628 107.782 269.326 106.65 268.723C105.517 268.119 105.517 267.818 105.234 265.705C104.951 263.593 102.403 261.481 102.686 260.576C102.969 259.671 90.2287 233.419 90.2287 232.514C90.2287 231.608 89.3794 228.289 88.2469 227.686C87.1144 227.082 85.4156 226.479 86.265 224.97C87.1144 223.461 84 178.199 84 178.199L91.9275 161.603Z" fill="#7A57D1"/>
<path d="M91.189 116.504C86.171 110.8 78.2906 107.773 71.0638 109.47C63.8371 111.166 57.7517 117.885 57.1866 125.617C57.071 127.199 57.1673 128.814 56.7764 130.347C56.119 132.925 54.1628 134.968 53.4732 137.537C53.0113 139.257 53.1482 141.109 52.6586 142.821C51.754 145.985 48.9541 148.047 46.8201 150.478C45.9559 151.369 45.314 152.469 44.9511 153.681C44.7634 154.756 44.7159 155.852 44.8097 156.94C44.8997 162.804 42.8175 168.477 39 172.769C41.2447 171.023 43.6698 169.547 46.2296 168.368C44.9608 172.599 46.1208 177.605 49.3133 180.519C52.5058 183.432 57.6191 183.885 61.071 181.316C63.1216 179.79 64.4535 177.447 65.7257 175.174L70.5422 166.569C71.4134 165.012 72.323 163.411 73.715 162.347C74.8213 161.502 76.1654 161.053 77.279 160.219C80.088 158.114 80.8422 153.995 80.3192 150.42C79.7961 146.845 78.2607 143.526 77.3802 140.028C76.6837 137.262 76.4652 134.092 78.032 131.749C80.1117 128.639 84.386 128.242 87.212 125.862C88.276 124.967 88.7514 123.877 89.5134 122.755C90.2169 121.72 90.3962 122.091 91.4862 122.044C94.4794 121.914 92.2981 117.765 91.189 116.504Z" fill="#2F2E41"/>
<path d="M76.5 136C77.3284 136 78 134.433 78 132.5C78 130.567 77.3284 129 76.5 129C75.6716 129 75 130.567 75 132.5C75 134.433 75.6716 136 76.5 136Z" fill="#FFB9B9"/>
<path d="M354 400C363.389 400 371 391.941 371 382C371 372.059 363.389 364 354 364C344.611 364 337 372.059 337 382C337 391.941 344.611 400 354 400Z" fill="#5BE7C4"/>
<path d="M17 53C26.3888 53 34 44.9411 34 35C34 25.0589 26.3888 17 17 17C7.61116 17 0 25.0589 0 35C0 44.9411 7.61116 53 17 53Z" fill="#4C4A65"/>
<path d="M554 35C563.389 35 571 27.165 571 17.5C571 7.83502 563.389 0 554 0C544.611 0 537 7.83502 537 17.5C537 27.165 544.611 35 554 35Z" fill="#5BE7C4"/>
</svg>
