<svg width="358" height="395" viewBox="0 0 358 395" fill="none" xmlns="http://www.w3.org/2000/svg">
<g clip-path="url(#clip0)">
<path d="M286.915 305.883C284 305.883 281.15 304.869 278.726 302.969C276.302 301.069 274.413 298.369 273.297 295.209C272.181 292.05 271.889 288.573 272.458 285.219C273.027 281.865 274.431 278.784 276.492 276.365C278.554 273.947 281.18 272.3 284.039 271.633C286.899 270.966 289.862 271.308 292.556 272.617C295.249 273.926 297.551 276.142 299.171 278.986C300.79 281.829 301.655 285.172 301.655 288.592C301.65 293.176 300.096 297.572 297.333 300.813C294.569 304.055 290.823 305.878 286.915 305.883Z" fill="#CCCCCC"/>
<path d="M293.718 287.927H287.482V279.614C287.482 279.438 287.422 279.268 287.316 279.144C287.209 279.019 287.065 278.949 286.915 278.949C286.765 278.949 286.62 279.019 286.514 279.144C286.408 279.268 286.348 279.438 286.348 279.614V287.927H280.112C279.962 287.927 279.817 287.997 279.711 288.122C279.605 288.247 279.545 288.416 279.545 288.592C279.545 288.769 279.605 288.938 279.711 289.062C279.817 289.187 279.962 289.257 280.112 289.257H286.348V297.57C286.348 297.747 286.408 297.916 286.514 298.041C286.62 298.165 286.765 298.235 286.915 298.235C287.065 298.235 287.209 298.165 287.316 298.041C287.422 297.916 287.482 297.747 287.482 297.57V289.257H293.718C293.868 289.257 294.012 289.187 294.119 289.062C294.225 288.938 294.285 288.769 294.285 288.592C294.285 288.416 294.225 288.247 294.119 288.122C294.012 287.997 293.868 287.927 293.718 287.927Z" fill="white"/>
<path d="M343.678 386.912L337.197 386.911L334.115 357.585L343.68 357.586L343.678 386.912Z" fill="#FFB8B8"/>
<path d="M332.568 384.738H345.067V393.971H324.698C324.698 392.758 324.901 391.558 325.297 390.437C325.692 389.317 326.272 388.3 327.003 387.442C327.733 386.585 328.601 385.905 329.556 385.441C330.511 384.977 331.534 384.738 332.568 384.738Z" fill="#2F2E41"/>
<path d="M317.883 386.912L311.402 386.911L308.32 357.585L317.885 357.586L317.883 386.912Z" fill="#FFB8B8"/>
<path d="M306.773 384.738H319.272V393.971H298.903C298.903 392.758 299.106 391.558 299.502 390.437C299.897 389.317 300.477 388.3 301.208 387.442C301.939 386.585 302.806 385.905 303.761 385.441C304.716 384.977 305.739 384.738 306.773 384.738Z" fill="#2F2E41"/>
<path d="M348.671 285.524C348.149 284.849 347.76 284.047 347.531 283.176C347.302 282.304 347.239 281.385 347.346 280.482C347.453 279.579 347.727 278.714 348.15 277.949C348.572 277.184 349.132 276.537 349.791 276.053L347.784 261.998L354.767 258.484L357.364 278.379C357.984 279.731 358.159 281.302 357.856 282.796C357.554 284.289 356.795 285.6 355.723 286.481C354.652 287.362 353.342 287.751 352.042 287.575C350.742 287.398 349.543 286.669 348.671 285.524Z" fill="#FFB8B8"/>
<path d="M293.998 278.883C294.608 278.318 295.104 277.603 295.453 276.788C295.801 275.973 295.993 275.078 296.015 274.167C296.037 273.256 295.888 272.35 295.579 271.513C295.27 270.676 294.809 269.93 294.227 269.325L298.186 255.852L291.794 251.033L286.431 270.151C285.629 271.365 285.236 272.881 285.324 274.412C285.412 275.944 285.975 277.384 286.908 278.46C287.841 279.537 289.078 280.174 290.385 280.252C291.691 280.33 292.977 279.843 293.998 278.883Z" fill="#FFB8B8"/>
<path d="M327.192 179.632C334.882 179.632 341.116 172.319 341.116 163.298C341.116 154.277 334.882 146.963 327.192 146.963C319.502 146.963 313.267 154.277 313.267 163.298C313.267 172.319 319.502 179.632 327.192 179.632Z" fill="#FFB8B8"/>
<path d="M293.568 268.804C293.329 268.804 293.091 268.765 292.862 268.687L288.803 267.32C288.155 267.1 287.607 266.589 287.28 265.897C286.952 265.206 286.87 264.39 287.053 263.628L295.428 228.938L307.108 195.303C308.269 191.959 310.696 189.766 313.441 189.58C314.694 189.508 315.938 189.864 317.023 190.605C318.107 191.346 318.986 192.44 319.551 193.755C320.179 195.161 320.524 196.718 320.559 198.306C320.594 199.894 320.318 201.47 319.753 202.913L306.478 236.97L295.924 266.953C295.731 267.5 295.405 267.969 294.985 268.298C294.566 268.628 294.073 268.804 293.568 268.804Z" fill="#3F3D56"/>
<path d="M335.049 176.996L327.313 177.157C326.507 177.176 325.709 176.972 324.982 176.562C324.256 176.153 323.622 175.548 323.131 174.798C322.64 174.048 322.306 173.174 322.157 172.244C322.007 171.315 322.046 170.358 322.269 169.45C322.435 168.793 322.559 168.124 322.641 167.446C322.728 166.707 322.745 165.959 322.692 165.216C322.643 164.471 322.38 163.769 321.946 163.223C321.511 162.677 320.932 162.32 320.302 162.211C319.673 162.103 319.03 162.248 318.48 162.624C317.93 162.999 317.505 163.583 317.275 164.279C315.975 164.301 313.203 163.803 311.902 163.825C309.14 155.519 315.159 144.65 321.639 140.567C328.244 136.405 336.818 140.639 339.35 149.314C342.864 149.388 345.719 153.453 346.172 158.03C346.625 162.607 345.02 167.386 342.564 170.893C340.109 174.401 336.885 176.958 335.049 176.996Z" fill="#2F2E41"/>
<path d="M309.618 384.174C308.991 384.169 308.388 383.896 307.922 383.404C307.455 382.913 307.159 382.238 307.089 381.507L304.218 268.292L340.381 271.312L340.409 271.584C348.581 351.831 345.787 379.609 345.758 379.881C345.738 380.291 345.646 380.692 345.488 381.059C345.329 381.426 345.108 381.751 344.838 382.013C344.568 382.276 344.255 382.47 343.918 382.584C343.581 382.698 343.228 382.729 342.881 382.676L334.889 382.9C334.283 382.82 333.722 382.487 333.307 381.963C332.892 381.439 332.651 380.758 332.627 380.043L325.16 298.043C325.114 297.83 325.006 297.643 324.854 297.514C324.702 297.386 324.516 297.324 324.329 297.34C324.137 297.34 323.95 297.417 323.801 297.56C323.653 297.703 323.551 297.902 323.513 298.123L320.628 380.392C320.659 381.156 320.438 381.904 320.012 382.482C319.585 383.061 318.986 383.424 318.337 383.498L309.872 384.159C309.788 384.169 309.703 384.174 309.618 384.174Z" fill="#2F2E41"/>
<path d="M324.624 281.82C324.407 281.82 324.192 281.816 323.975 281.808C313.576 281.441 305.441 272.212 303.196 269.392C302.91 269.032 302.704 268.595 302.597 268.12C302.49 267.644 302.485 267.145 302.583 266.667L308.581 236.897L306.99 211.015C306.74 207.423 307.141 203.81 308.168 200.413C309.195 197.016 310.823 193.913 312.946 191.307C314.715 189.115 316.865 187.395 319.25 186.263C321.635 185.131 324.2 184.614 326.771 184.746C336.893 185.313 344.879 195.927 344.951 208.909C345.063 229.017 344.558 230.398 344.393 230.852C339.341 244.683 342.1 264.097 343.066 269.719C343.152 270.22 343.128 270.739 342.995 271.226C342.863 271.714 342.626 272.153 342.308 272.503C336.752 278.688 330.805 281.819 324.624 281.82Z" fill="#3F3D56"/>
<path d="M350.739 274.252C350.162 274.252 349.602 274.021 349.151 273.599C348.7 273.177 348.384 272.588 348.255 271.928L342.067 240.3L333.772 204.15C333.418 202.617 333.368 201.01 333.626 199.45C333.884 197.891 334.444 196.423 335.262 195.157C336.005 193.971 337.025 193.062 338.198 192.542C339.372 192.021 340.649 191.911 341.876 192.224C344.556 192.94 346.641 195.573 347.315 199.096L354.093 234.495L357.473 270.369C357.546 271.156 357.35 271.944 356.929 272.563C356.509 273.181 355.896 273.58 355.226 273.671L351.031 274.232C350.934 274.245 350.836 274.252 350.739 274.252Z" fill="#3F3D56"/>
<path d="M17.4792 277.663C18.2135 277.072 18.8286 276.3 19.281 275.401C19.7334 274.501 20.0122 273.496 20.0977 272.456C20.1832 271.417 20.0733 270.368 19.7759 269.383C19.4784 268.399 19.0005 267.503 18.376 266.758L20.7384 204.897L8.71091 206.481L9.40967 266.99C8.41324 268.304 7.86225 270.001 7.86107 271.759C7.8599 273.518 8.40863 275.215 9.4033 276.531C10.398 277.847 11.7695 278.689 13.2579 278.897C14.7463 279.106 16.2483 278.667 17.4792 277.663Z" fill="#FFB8B8"/>
<path d="M39.4202 382.381L46.2658 383.793L53.0314 353.49L44.0621 351.407L39.4202 382.381Z" fill="#FFB8B8"/>
<path d="M58.35 393.972L36.8361 389.535L38.2974 379.784L51.4991 382.506C52.5907 382.732 53.6338 383.207 54.5688 383.905C55.5039 384.603 56.3125 385.51 56.9487 386.575C57.5849 387.639 58.036 388.84 58.2765 390.11C58.5169 391.379 58.5419 392.691 58.35 393.972Z" fill="#2F2E41"/>
<path d="M20.6314 386.4H27.5818L30.8881 354.951L20.6302 354.952L20.6314 386.4Z" fill="#FFB8B8"/>
<path d="M40.9862 393.97L19.1424 393.972L19.142 384.071L32.5462 384.07C34.7845 384.07 36.9312 385.113 38.514 386.97C40.0968 388.826 40.9861 391.345 40.9862 393.97Z" fill="#2F2E41"/>
<path d="M50.1979 377.789C50.0894 377.789 49.981 377.781 49.8733 377.766L41.6926 376.976C41.3202 376.925 40.9605 376.785 40.6355 376.566C40.3105 376.346 40.0268 376.052 39.8019 375.699C39.577 375.347 39.4153 374.946 39.3269 374.518C39.2385 374.09 39.2251 373.646 39.2875 373.212L46.8415 323.546L41.7372 291.973C41.6956 291.717 41.5763 291.487 41.4014 291.325C41.2264 291.164 41.0076 291.082 40.7853 291.095C40.563 291.108 40.3522 291.215 40.1917 291.396C40.0313 291.577 39.9321 291.82 39.9123 292.08L33.5312 376.293C33.4611 377.138 33.1139 377.919 32.5629 378.469C32.0119 379.02 31.3001 379.298 30.5778 379.244L22.8706 378.908C22.1952 378.851 21.5607 378.507 21.0869 377.94C20.613 377.372 20.3327 376.621 20.2988 375.828L19.7807 274.895L59.7379 269.036L62.5292 319.607L62.5181 319.66L52.8857 375.308C52.739 376.015 52.3944 376.643 51.907 377.093C51.4197 377.543 50.8179 377.788 50.1979 377.789Z" fill="#2F2E41"/>
<path d="M32.9545 164.81C40.6446 164.81 46.8787 157.497 46.8787 148.476C46.8787 139.454 40.6446 132.141 32.9545 132.141C25.2644 132.141 19.0304 139.454 19.0304 148.476C19.0304 157.497 25.2644 164.81 32.9545 164.81Z" fill="#FFB8B8"/>
<path d="M46.0745 282.272C43.8968 282.287 41.7609 281.57 39.9195 280.206C33.1746 275.261 25.5137 277.226 21.5474 278.838C21.1538 279 20.7342 279.055 20.3198 279C19.9055 278.944 19.5072 278.78 19.1547 278.518C18.8063 278.262 18.5118 277.916 18.2934 277.507C18.075 277.098 17.9384 276.636 17.8937 276.156L10.681 200.59C9.47233 187.929 15.9737 176.025 26.1396 172.286C26.5215 172.145 26.9099 172.012 27.3047 171.886C30.4683 170.88 33.7813 170.699 37.0108 171.356C40.2403 172.014 43.3077 173.494 45.9972 175.692C48.7367 177.914 51.0278 180.813 52.7093 184.186C54.3907 187.558 55.4216 191.322 55.7294 195.213L61.8014 271.286C61.8427 271.778 61.7861 272.275 61.6358 272.738C61.4856 273.2 61.2459 273.615 60.9356 273.951C58.8071 276.261 52.6293 282.271 46.0745 282.272Z" fill="#7A57D1"/>
<path d="M24.1114 216.795L7.83889 214.696C7.37589 214.636 6.9293 214.46 6.52955 214.179C6.12979 213.899 5.78627 213.521 5.52235 213.07C5.25843 212.62 5.08033 212.109 5.00019 211.57C4.92004 211.032 4.93973 210.48 5.0579 209.951L9.19985 191.432C9.47374 188.655 10.6752 186.119 12.5408 184.379C14.4065 182.639 16.784 181.839 19.1521 182.152C21.5202 182.466 23.6857 183.869 25.1736 186.052C26.6616 188.236 27.3507 191.023 27.0898 193.802L27.7047 212.872C27.7221 213.418 27.6391 213.962 27.4611 214.467C27.2832 214.972 27.0146 215.426 26.6736 215.799C26.3326 216.171 25.9272 216.452 25.4851 216.624C25.0429 216.796 24.5744 216.854 24.1114 216.795V216.795Z" fill="#7A57D1"/>
<path d="M61.7363 275.014C62.4046 274.324 62.9358 273.47 63.2925 272.513C63.6492 271.556 63.8227 270.519 63.8008 269.475C63.7789 268.431 63.5621 267.405 63.1656 266.47C62.7692 265.535 62.2028 264.713 61.5063 264.062L57.4965 202.318L45.7111 205.43L52.6291 265.56C51.7749 267.005 51.4023 268.767 51.5818 270.513C51.7612 272.259 52.4804 273.867 53.603 275.032C54.7255 276.198 56.1735 276.839 57.6725 276.836C59.1716 276.833 60.6175 276.184 61.7363 275.014Z" fill="#FFB8B8"/>
<path d="M41.1927 212.913C40.8516 212.541 40.5829 212.087 40.405 211.582C40.227 211.077 40.1441 210.533 40.1618 209.987L40.7767 190.917C40.5158 188.138 41.2048 185.351 42.6928 183.167C44.1808 180.983 46.3462 179.581 48.7144 179.267C51.0825 178.953 53.46 179.754 55.3256 181.494C57.1912 183.233 58.3927 185.77 58.6666 188.547L62.8086 207.066C62.9267 207.595 62.9464 208.147 62.8663 208.685C62.7861 209.223 62.608 209.735 62.3441 210.185C62.0802 210.635 61.7367 211.014 61.3369 211.294C60.9372 211.575 60.4906 211.751 60.0276 211.81L43.7551 213.909C43.292 213.969 42.8234 213.911 42.3812 213.739C41.939 213.568 41.5336 213.286 41.1927 212.913Z" fill="#7A57D1"/>
<path d="M32.1264 165.425C31.8789 165.425 31.6322 165.391 31.3913 165.325L31.3206 165.305C19.0782 163.108 16.3728 154.789 15.7789 151.315C15.1642 147.719 15.8641 144.247 17.4457 142.899C16.5834 139.704 16.7218 136.873 17.858 134.478C19.8396 130.301 24.1401 128.889 24.7168 128.716C28.1513 125.744 32.2605 127.728 33.0082 128.13C39.6516 125.247 42.1909 127.647 42.6501 128.183C45.6198 128.808 47.4299 130.154 48.0309 132.183C49.1596 135.995 45.59 140.736 45.4375 140.936L45.3583 141.039L40.0406 141.337C39.536 141.365 39.0421 141.517 38.5909 141.784C38.1397 142.05 37.7413 142.425 37.4216 142.884C37.1019 143.343 36.8679 143.875 36.735 144.447C36.602 145.019 36.5729 145.617 36.6497 146.203C36.7936 146.958 36.9754 147.704 37.1942 148.434C38.1024 151.764 38.7829 154.608 37.9052 155.689C37.7064 155.899 37.4613 156.038 37.1981 156.091C36.9349 156.145 36.6642 156.111 36.4169 155.992C35.5855 155.732 35.0209 155.786 34.7397 156.155C34.303 156.726 34.4363 158.173 35.115 160.228C35.328 160.878 35.3853 161.584 35.2808 162.27C35.1763 162.955 34.9139 163.594 34.5221 164.117C34.2271 164.525 33.8601 164.854 33.4466 165.08C33.033 165.305 32.5826 165.423 32.1264 165.425Z" fill="#2F2E41"/>
<path d="M79.9357 395H0.56692C0.416563 395 0.272356 394.93 0.166038 394.805C0.0597198 394.681 0 394.511 0 394.335C0 394.159 0.0597198 393.989 0.166038 393.865C0.272356 393.74 0.416563 393.67 0.56692 393.67H79.9357C80.086 393.67 80.2302 393.74 80.3365 393.865C80.4428 393.989 80.5026 394.159 80.5026 394.335C80.5026 394.511 80.4428 394.681 80.3365 394.805C80.2302 394.93 80.086 395 79.9357 395Z" fill="#CCCCCC"/>
<path d="M356.592 395H277.224C277.073 395 276.929 394.93 276.823 394.805C276.716 394.681 276.657 394.511 276.657 394.335C276.657 394.159 276.716 393.989 276.823 393.865C276.929 393.74 277.073 393.67 277.224 393.67H356.592C356.743 393.67 356.887 393.74 356.993 393.865C357.1 393.989 357.159 394.159 357.159 394.335C357.159 394.511 357.1 394.681 356.993 394.805C356.887 394.93 356.743 395 356.592 395Z" fill="#CCCCCC"/>
<path d="M243.046 281.981H105.851C100.59 281.974 95.5469 279.519 91.8271 275.156C88.1073 270.792 86.0149 264.875 86.0089 258.704V23.2767C86.0149 17.1055 88.1073 11.189 91.8271 6.82533C95.5469 2.46161 100.59 0.00700386 105.851 0H243.046C248.306 0.00700386 253.35 2.46161 257.07 6.82533C260.789 11.189 262.882 17.1055 262.888 23.2767V258.704C262.882 264.875 260.789 270.792 257.07 275.156C253.35 279.519 248.306 281.974 243.046 281.981Z" fill="white"/>
<path d="M221.503 186.898H127.394C117.781 186.844 117.741 169.666 127.395 169.607L221.503 169.607C231.109 169.66 231.161 186.839 221.503 186.898Z" fill="#CCCCCC"/>
<path d="M221.503 48.5291H127.394C117.781 48.4748 117.741 31.2966 127.395 31.2378L221.503 31.2378C231.109 31.2906 231.161 48.47 221.503 48.5291Z" fill="#CCCCCC"/>
<path d="M221.503 218.821H127.394C117.781 218.767 117.741 201.588 127.395 201.53L221.503 201.53C231.109 201.582 231.161 218.762 221.503 218.821Z" fill="#CCCCCC"/>
<path d="M221.503 250.743H127.394C117.781 250.689 117.741 233.511 127.395 233.452L221.503 233.452C231.109 233.505 231.161 250.684 221.503 250.743Z" fill="#CCCCCC"/>
<path d="M219.802 148.858H129.095C126.615 148.854 124.237 147.697 122.483 145.64C120.73 143.583 119.743 140.794 119.741 137.884V78.2961C119.743 75.3868 120.73 72.5976 122.483 70.5404C124.237 68.4832 126.615 67.326 129.095 67.3228H219.802C222.282 67.326 224.66 68.4832 226.413 70.5404C228.167 72.5976 229.153 75.3868 229.156 78.2961V137.884C229.153 140.794 228.167 143.583 226.413 145.64C224.66 147.697 222.282 148.854 219.802 148.858Z" fill="#7A57D1"/>
<path d="M243.046 281.981H105.851C100.59 281.974 95.5469 279.519 91.8271 275.156C88.1073 270.792 86.0149 264.875 86.0089 258.704V23.2767C86.0149 17.1055 88.1073 11.189 91.8271 6.82533C95.5469 2.46161 100.59 0.00700386 105.851 0H243.046C248.306 0.00700386 253.35 2.46161 257.07 6.82533C260.789 11.189 262.882 17.1055 262.888 23.2767V258.704C262.882 264.875 260.789 270.792 257.07 275.156C253.35 279.519 248.306 281.974 243.046 281.981ZM105.851 3.9903C101.492 3.99608 97.3134 6.02989 94.2312 9.64555C91.149 13.2612 89.4153 18.1634 89.4104 23.2767V258.704C89.4153 263.817 91.149 268.72 94.2312 272.335C97.3134 275.951 101.492 277.985 105.851 277.991H243.046C247.404 277.985 251.583 275.951 254.666 272.335C257.748 268.72 259.481 263.817 259.486 258.704V23.2767C259.481 18.1634 257.748 13.2612 254.666 9.64553C251.583 6.02987 247.404 3.99606 243.046 3.9903H105.851Z" fill="#E6E6E6"/>
</g>
<defs>
<clipPath id="clip0">
<rect width="358" height="395" fill="white"/>
</clipPath>
</defs>
</svg>
