<svg width="680" height="559" viewBox="0 0 680 559" fill="none" xmlns="http://www.w3.org/2000/svg">
<g clip-path="url(#clip0)">
<path d="M328.991 494.233C182.63 482.173 8.08707 359.376 16.9733 232.937C25.8595 106.497 194.906 -11.2072 341.267 0.853198C487.629 12.9136 571.879 249.207 562.993 375.647C554.107 502.086 475.352 506.293 328.991 494.233Z" fill="#7A57D1"/>
<path d="M341.266 514.542C510.003 514.542 646.791 505.467 646.791 494.274C646.791 483.08 510.003 474.006 341.266 474.006C172.529 474.006 35.7413 483.08 35.7413 494.274C35.7413 505.467 172.529 514.542 341.266 514.542Z" fill="#3F3D56"/>
<path opacity="0.1" d="M341.266 507.35C484.992 507.35 601.506 501.349 601.506 493.947C601.506 486.545 484.992 480.544 341.266 480.544C197.54 480.544 81.0266 486.545 81.0266 493.947C81.0266 501.349 197.54 507.35 341.266 507.35Z" fill="black"/>
<path d="M128.123 559C198.884 559 256.247 553.585 256.247 546.905C256.247 540.225 198.884 534.809 128.123 534.809C57.3627 534.809 0 540.225 0 546.905C0 553.585 57.3627 559 128.123 559Z" fill="#3F3D56"/>
<path opacity="0.1" d="M128.123 554.708C188.396 554.708 237.256 551.127 237.256 546.71C237.256 542.292 188.396 538.711 128.123 538.711C67.851 538.711 18.9906 542.292 18.9906 546.71C18.9906 551.127 67.851 554.708 128.123 554.708Z" fill="black"/>
<path d="M572.523 105.916H118.462V491.658H572.523V105.916Z" fill="#3F3D56"/>
<path d="M340.327 158.631H228.311C228.132 158.632 227.955 158.594 227.789 158.52C227.624 158.446 227.474 158.338 227.347 158.201C227.221 158.064 227.121 157.902 227.052 157.723C226.984 157.544 226.948 157.353 226.948 157.159C226.948 156.966 226.984 156.774 227.052 156.595C227.121 156.416 227.221 156.254 227.347 156.117C227.474 155.981 227.624 155.872 227.789 155.798C227.955 155.725 228.132 155.687 228.311 155.687H340.327C340.687 155.688 341.032 155.844 341.286 156.119C341.541 156.395 341.683 156.769 341.683 157.159C341.683 157.549 341.541 157.923 341.286 158.199C341.032 158.475 340.687 158.63 340.327 158.631Z" fill="#F2F2F2"/>
<path d="M462.947 174.823H286.766C286.405 174.823 286.059 174.668 285.804 174.392C285.549 174.116 285.406 173.741 285.406 173.351C285.406 172.961 285.549 172.586 285.804 172.31C286.059 172.034 286.405 171.879 286.766 171.879H462.947C463.125 171.879 463.302 171.917 463.467 171.991C463.632 172.065 463.782 172.174 463.908 172.31C464.034 172.447 464.134 172.609 464.203 172.788C464.271 172.966 464.306 173.158 464.306 173.351C464.306 173.544 464.271 173.736 464.203 173.914C464.134 174.093 464.034 174.255 463.908 174.392C463.782 174.529 463.632 174.637 463.467 174.711C463.302 174.785 463.125 174.823 462.947 174.823Z" fill="#F2F2F2"/>
<path d="M340.871 191.015H228.854C228.494 191.015 228.148 190.86 227.893 190.584C227.638 190.308 227.495 189.933 227.495 189.543C227.495 189.153 227.638 188.778 227.893 188.502C228.148 188.226 228.494 188.071 228.854 188.071H340.871C341.231 188.071 341.577 188.226 341.832 188.502C342.087 188.778 342.23 189.153 342.23 189.543C342.23 189.933 342.087 190.308 341.832 190.584C341.577 190.86 341.231 191.015 340.871 191.015Z" fill="#F2F2F2"/>
<path d="M462.947 191.309H350.93C350.57 191.309 350.224 191.154 349.969 190.878C349.714 190.602 349.571 190.228 349.571 189.837C349.571 189.447 349.714 189.073 349.969 188.796C350.224 188.52 350.57 188.365 350.93 188.365H462.947C463.307 188.365 463.653 188.52 463.908 188.796C464.163 189.073 464.306 189.447 464.306 189.837C464.306 190.228 464.163 190.602 463.908 190.878C463.653 191.154 463.307 191.309 462.947 191.309Z" fill="#F2F2F2"/>
<path d="M341.143 207.207H229.126C228.766 207.207 228.42 207.052 228.165 206.776C227.91 206.5 227.767 206.125 227.767 205.735C227.767 205.344 227.91 204.97 228.165 204.694C228.42 204.418 228.766 204.263 229.126 204.263H341.143C341.503 204.263 341.849 204.418 342.104 204.694C342.359 204.97 342.502 205.344 342.502 205.735C342.502 206.125 342.359 206.5 342.104 206.776C341.849 207.052 341.503 207.207 341.143 207.207Z" fill="#F2F2F2"/>
<path d="M341.414 223.399H229.398C229.038 223.399 228.692 223.244 228.437 222.967C228.182 222.691 228.039 222.317 228.039 221.927C228.039 221.536 228.182 221.162 228.437 220.886C228.692 220.61 229.038 220.455 229.398 220.455H341.414C341.775 220.455 342.121 220.61 342.376 220.886C342.631 221.162 342.774 221.536 342.774 221.927C342.774 222.317 342.631 222.691 342.376 222.967C342.121 223.244 341.775 223.399 341.414 223.399Z" fill="#F2F2F2"/>
<path d="M392.257 158.926H360.174C359.814 158.926 359.468 158.771 359.213 158.494C358.958 158.218 358.815 157.844 358.815 157.454C358.815 157.063 358.958 156.689 359.213 156.413C359.468 156.137 359.814 155.982 360.174 155.982H392.257C392.617 155.982 392.963 156.137 393.218 156.413C393.473 156.689 393.616 157.063 393.616 157.454C393.616 157.844 393.473 158.218 393.218 158.494C392.963 158.771 392.617 158.926 392.257 158.926Z" fill="#F2F2F2"/>
<path d="M392.257 207.207H360.174C359.814 207.207 359.468 207.052 359.213 206.776C358.958 206.5 358.815 206.125 358.815 205.735C358.815 205.344 358.958 204.97 359.213 204.694C359.468 204.418 359.814 204.263 360.174 204.263H392.257C392.617 204.263 392.963 204.418 393.218 204.694C393.473 204.97 393.616 205.344 393.616 205.735C393.616 206.125 393.473 206.5 393.218 206.776C392.963 207.052 392.617 207.207 392.257 207.207Z" fill="#F2F2F2"/>
<path d="M392.257 223.104H360.174C359.996 223.105 359.819 223.067 359.653 222.993C359.488 222.919 359.338 222.811 359.211 222.674C359.085 222.537 358.984 222.375 358.916 222.196C358.847 222.017 358.812 221.826 358.812 221.632C358.812 221.439 358.847 221.247 358.916 221.068C358.984 220.889 359.085 220.727 359.211 220.59C359.338 220.454 359.488 220.345 359.653 220.271C359.819 220.198 359.996 220.16 360.174 220.16H392.257C392.435 220.16 392.613 220.198 392.778 220.271C392.943 220.345 393.093 220.454 393.22 220.59C393.346 220.727 393.447 220.889 393.515 221.068C393.584 221.247 393.619 221.439 393.619 221.632C393.619 221.826 393.584 222.017 393.515 222.196C393.447 222.375 393.346 222.537 393.22 222.674C393.093 222.811 392.943 222.919 392.778 222.993C392.613 223.067 392.435 223.105 392.257 223.104Z" fill="#F2F2F2"/>
<path d="M446.09 223.104H414.007C413.647 223.103 413.302 222.948 413.048 222.672C412.794 222.396 412.651 222.022 412.651 221.632C412.651 221.242 412.794 220.868 413.048 220.592C413.302 220.317 413.647 220.161 414.007 220.16H446.09C446.269 220.16 446.446 220.198 446.611 220.271C446.776 220.345 446.926 220.454 447.053 220.59C447.179 220.727 447.28 220.889 447.348 221.068C447.417 221.247 447.452 221.439 447.452 221.632C447.452 221.826 447.417 222.017 447.348 222.196C447.28 222.375 447.179 222.537 447.053 222.674C446.926 222.811 446.776 222.919 446.611 222.993C446.446 223.067 446.269 223.105 446.09 223.104Z" fill="#F2F2F2"/>
<path d="M260.121 174.823H228.039C227.678 174.823 227.332 174.668 227.077 174.392C226.822 174.116 226.679 173.741 226.679 173.351C226.679 172.961 226.822 172.586 227.077 172.31C227.332 172.034 227.678 171.879 228.039 171.879H260.121C260.482 171.879 260.827 172.034 261.082 172.31C261.337 172.586 261.48 172.961 261.48 173.351C261.48 173.741 261.337 174.116 261.082 174.392C260.827 174.668 260.482 174.823 260.121 174.823Z" fill="#F2F2F2"/>
<path d="M340.463 397.093H228.446C228.086 397.093 227.74 396.938 227.485 396.662C227.23 396.386 227.087 396.011 227.087 395.621C227.087 395.231 227.23 394.856 227.485 394.58C227.74 394.304 228.086 394.149 228.446 394.149H340.463C340.823 394.149 341.169 394.304 341.424 394.58C341.679 394.856 341.822 395.231 341.822 395.621C341.822 396.011 341.679 396.386 341.424 396.662C341.169 396.938 340.823 397.093 340.463 397.093Z" fill="#F2F2F2"/>
<path d="M339.919 429.477H227.903C227.542 429.477 227.196 429.322 226.941 429.046C226.687 428.77 226.543 428.395 226.543 428.005C226.543 427.614 226.687 427.24 226.941 426.964C227.196 426.688 227.542 426.533 227.903 426.533H339.919C340.28 426.533 340.625 426.688 340.88 426.964C341.135 427.24 341.278 427.614 341.278 428.005C341.278 428.395 341.135 428.77 340.88 429.046C340.625 429.322 340.28 429.477 339.919 429.477Z" fill="#F2F2F2"/>
<path d="M340.191 445.669H228.175C227.996 445.669 227.819 445.631 227.653 445.557C227.488 445.484 227.338 445.375 227.211 445.239C227.085 445.102 226.985 444.939 226.916 444.761C226.848 444.582 226.812 444.39 226.812 444.197C226.812 444.003 226.848 443.811 226.916 443.633C226.985 443.454 227.085 443.291 227.211 443.155C227.338 443.018 227.488 442.91 227.653 442.836C227.819 442.762 227.996 442.724 228.175 442.725H340.191C340.37 442.724 340.547 442.762 340.712 442.836C340.877 442.91 341.027 443.018 341.154 443.155C341.281 443.291 341.381 443.454 341.449 443.633C341.518 443.811 341.553 444.003 341.553 444.197C341.553 444.39 341.518 444.582 341.449 444.761C341.381 444.939 341.281 445.102 341.154 445.239C341.027 445.375 340.877 445.484 340.712 445.557C340.547 445.631 340.37 445.669 340.191 445.669Z" fill="#F2F2F2"/>
<path d="M388.042 429.771H355.96C355.6 429.771 355.254 429.616 354.999 429.34C354.744 429.064 354.601 428.69 354.601 428.299C354.601 427.909 354.744 427.534 354.999 427.258C355.254 426.982 355.6 426.827 355.96 426.827H388.042C388.403 426.827 388.749 426.982 389.004 427.258C389.259 427.534 389.402 427.909 389.402 428.299C389.402 428.69 389.259 429.064 389.004 429.34C388.749 429.616 388.403 429.771 388.042 429.771Z" fill="#F2F2F2"/>
<path d="M388.042 445.669H355.96C355.6 445.669 355.254 445.514 354.999 445.237C354.744 444.961 354.601 444.587 354.601 444.197C354.601 443.806 354.744 443.432 354.999 443.156C355.254 442.88 355.6 442.725 355.96 442.725H388.042C388.403 442.725 388.749 442.88 389.004 443.156C389.259 443.432 389.402 443.806 389.402 444.197C389.402 444.587 389.259 444.961 389.004 445.237C388.749 445.514 388.403 445.669 388.042 445.669Z" fill="#F2F2F2"/>
<path d="M441.876 429.771H409.793C409.433 429.771 409.087 429.616 408.832 429.34C408.577 429.064 408.434 428.69 408.434 428.299C408.434 427.909 408.577 427.534 408.832 427.258C409.087 426.982 409.433 426.827 409.793 426.827H441.876C442.236 426.827 442.582 426.982 442.837 427.258C443.092 427.534 443.235 427.909 443.235 428.299C443.235 428.69 443.092 429.064 442.837 429.34C442.582 429.616 442.236 429.771 441.876 429.771Z" fill="#F2F2F2"/>
<path d="M463.083 413.285H286.902C286.541 413.285 286.195 413.13 285.94 412.854C285.685 412.578 285.542 412.203 285.542 411.813C285.542 411.423 285.685 411.048 285.94 410.772C286.195 410.496 286.541 410.341 286.902 410.341H463.083C463.443 410.341 463.789 410.496 464.044 410.772C464.299 411.048 464.442 411.423 464.442 411.813C464.442 412.203 464.299 412.578 464.044 412.854C463.789 413.13 463.443 413.285 463.083 413.285Z" fill="#F2F2F2"/>
<path d="M260.257 413.285H228.175C227.814 413.285 227.468 413.13 227.213 412.854C226.958 412.578 226.815 412.203 226.815 411.813C226.815 411.423 226.958 411.048 227.213 410.772C227.468 410.496 227.814 410.341 228.175 410.341H260.257C260.617 410.341 260.963 410.496 261.218 410.772C261.473 411.048 261.616 411.423 261.616 411.813C261.616 412.203 261.473 412.578 261.218 412.854C260.963 413.13 260.617 413.285 260.257 413.285Z" fill="#F2F2F2"/>
<path d="M463.083 462.155H286.902C286.723 462.155 286.546 462.117 286.381 462.044C286.215 461.97 286.065 461.862 285.938 461.725C285.812 461.588 285.712 461.426 285.643 461.247C285.575 461.068 285.539 460.876 285.539 460.683C285.539 460.489 285.575 460.298 285.643 460.119C285.712 459.94 285.812 459.778 285.938 459.641C286.065 459.504 286.215 459.396 286.381 459.322C286.546 459.248 286.723 459.21 286.902 459.211H463.083C463.443 459.211 463.789 459.366 464.044 459.642C464.299 459.918 464.442 460.293 464.442 460.683C464.442 461.073 464.299 461.448 464.044 461.724C463.789 462 463.443 462.155 463.083 462.155Z" fill="#F2F2F2"/>
<path d="M260.257 462.155H228.175C227.996 462.155 227.819 462.117 227.653 462.044C227.488 461.97 227.338 461.862 227.211 461.725C227.085 461.588 226.985 461.426 226.916 461.247C226.848 461.068 226.812 460.876 226.812 460.683C226.812 460.489 226.848 460.298 226.916 460.119C226.985 459.94 227.085 459.778 227.211 459.641C227.338 459.504 227.488 459.396 227.653 459.322C227.819 459.248 227.996 459.21 228.175 459.211H260.257C260.436 459.21 260.613 459.248 260.778 459.322C260.943 459.396 261.094 459.504 261.22 459.641C261.347 459.778 261.447 459.94 261.515 460.119C261.584 460.298 261.619 460.489 261.619 460.683C261.619 460.876 261.584 461.068 261.515 461.247C261.447 461.426 261.347 461.588 261.22 461.725C261.094 461.862 260.943 461.97 260.778 462.044C260.613 462.117 260.436 462.155 260.257 462.155Z" fill="#F2F2F2"/>
<path d="M313.41 262.259L269.909 308.774L313.41 355.289L323.198 344.691L290.3 309.068L323.47 273.152L313.41 262.259Z" fill="#7A57D1"/>
<path d="M377.575 262.259L421.076 308.774L377.575 355.289L367.787 344.691L400.685 309.068L367.515 273.152L377.575 262.259Z" fill="#7A57D1"/>
<path d="M130.538 121.607C133.54 121.607 135.973 118.973 135.973 115.723C135.973 112.473 133.54 109.839 130.538 109.839C127.537 109.839 125.104 112.473 125.104 115.723C125.104 118.973 127.537 121.607 130.538 121.607Z" fill="#FF5959"/>
<path d="M145.03 121.607C148.031 121.607 150.464 118.973 150.464 115.723C150.464 112.473 148.031 109.839 145.03 109.839C142.029 109.839 139.596 112.473 139.596 115.723C139.596 118.973 142.029 121.607 145.03 121.607Z" fill="#FACF5A"/>
<path d="M159.521 121.607C162.522 121.607 164.955 118.973 164.955 115.723C164.955 112.473 162.522 109.839 159.521 109.839C156.52 109.839 154.087 112.473 154.087 115.723C154.087 118.973 156.52 121.607 159.521 121.607Z" fill="#49BEB7"/>
<path opacity="0.1" d="M572.523 125.53H118.462V127.491H572.523V125.53Z" fill="black"/>
<path d="M680 397.154C680 438.847 657.109 453.405 628.872 453.405C600.635 453.405 577.744 438.847 577.744 397.154C577.744 355.46 628.872 302.419 628.872 302.419C628.872 302.419 680 355.46 680 397.154Z" fill="#5BE7C4"/>
<path d="M627.01 447.027L627.533 412.133L649.325 368.965L627.615 406.66L627.851 390.97L642.869 359.738L627.913 386.818L628.336 358.599L644.419 333.735L628.403 354.162L628.667 302.42L627.005 370.918L627.141 368.092L610.79 340.991L626.879 373.517L625.356 405.032L625.311 404.195L606.461 375.675L625.253 407.15L625.063 411.091L625.029 411.151L625.044 411.474L621.179 491.432H626.343L626.963 450.132L645.71 418.734L627.01 447.027Z" fill="#3F3D56"/>
<path d="M74.0394 491.064C72.4707 492.01 70.8159 492.777 69.1014 493.354C66.0348 494.261 62.7572 493.929 59.6597 494.703C58.3915 495.02 57.0112 495.683 56.6079 497.023C56.3121 498.006 56.6339 499.067 56.9421 500.046C60.3648 510.912 62.4277 522.449 67.8861 532.292C70.1801 536.425 73.0273 540.168 76.335 543.398C77.5759 544.609 78.9821 545.794 80.6434 545.984C81.409 546.071 82.1823 545.939 82.8855 545.599C83.5886 545.26 84.1965 544.725 84.6479 544.05C85.0994 543.375 85.3783 542.583 85.4566 541.753C85.5348 540.924 85.4097 540.087 85.0937 539.327C84.6043 538.149 83.6945 537.237 83.1078 536.113C82.4716 534.681 82.0985 533.129 82.0092 531.542C81.4699 526.895 80.9504 522.038 82.4376 517.639C83.435 514.689 85.2646 512.174 86.7888 509.501C88.313 506.828 89.5794 503.766 89.2403 500.646C89.0088 498.517 88.0496 496.568 87.0364 494.726C86.0211 492.881 84.0145 487.921 81.9748 487.306C79.8574 486.666 75.8859 490.04 74.0394 491.064Z" fill="#2F2E41"/>
<path d="M129.852 528.598C129.884 529.65 129.748 530.699 129.452 531.701C128.813 533.527 127.229 534.778 126.411 536.517C125.272 538.937 125.788 541.861 126.542 544.451C127.015 546.074 127.635 547.764 128.905 548.768C129.99 549.496 131.225 549.925 132.5 550.015C143.39 551.647 154.453 550.71 165.442 551.052C167.445 551.115 169.566 551.19 171.314 550.131C173.063 549.071 174.144 546.406 172.955 544.66C171.887 543.091 169.775 543.106 167.978 543.014C163.298 542.756 158.841 540.768 155.351 537.381C154.663 536.745 154.066 536.001 153.58 535.174C153.206 534.44 152.896 533.67 152.653 532.874C151.113 528.355 149.28 523.96 147.168 519.72C146.577 518.534 145.908 517.298 144.81 516.663C144.006 516.267 143.133 516.061 142.25 516.058C139.511 515.866 132.418 514.856 130.3 517.162C128.343 519.293 129.895 525.892 129.852 528.598Z" fill="#2F2E41"/>
<path d="M146.707 265.244C156.369 265.244 164.202 256.763 164.202 246.3C164.202 235.838 156.369 227.356 146.707 227.356C137.044 227.356 129.212 235.838 129.212 246.3C129.212 256.763 137.044 265.244 146.707 265.244Z" fill="#FFB9B9"/>
<path d="M130.908 261.943C129.868 264.959 128.102 267.792 125.534 269.416L149.731 274.76C148.854 270.936 148.738 266.954 149.392 263.077C149.632 262.139 149.682 261.156 149.537 260.195C149.082 258.294 147.106 257.379 145.337 256.943C140.921 255.852 137.016 255.268 132.912 253.156C131.657 255.481 131.833 259.262 130.908 261.943Z" fill="#FFB9B9"/>
<path d="M125.332 262.323C127.935 261.047 130.771 260.427 133.627 260.507C136.483 260.588 139.286 261.368 141.824 262.789C144.926 264.559 147.495 267.231 150.018 269.868C152.344 272.298 154.826 275.08 154.991 278.575C155.071 280.269 154.583 281.925 154.337 283.599C153.894 287.062 154.457 290.588 155.947 293.689C157.438 296.79 159.783 299.312 162.657 300.905C164.579 304.372 164.976 308.573 165.005 312.617C165.117 327.939 160.652 343.451 163.84 358.38C164.588 361.885 165.749 365.28 166.395 368.809C167.233 373.38 167.191 378.08 167.629 382.715C168.105 387.735 169.141 392.674 170.717 397.423C169.664 399.236 167.472 399.932 165.499 399.785C163.525 399.638 161.679 398.71 159.918 397.735C151.391 393.009 143.58 386.779 134.747 382.763C128.904 380.106 122.679 378.451 117.01 375.383C111.341 372.314 106.069 367.444 104.336 360.843C103.587 357.989 103.54 354.982 103.5 352.015C103.327 339.518 103.167 326.885 105.679 314.687C107.895 303.93 112.165 293.639 113.097 282.663C113.4 279.091 113.406 275.266 115.25 272.285C117.855 268.072 123.481 266.981 125.332 262.323Z" fill="#2F2E41"/>
<path d="M136.756 246.568C137.787 245.112 139.776 244.913 141.423 245.344C143.07 245.774 144.588 246.694 146.251 247.043C146.63 247.159 147.026 247.188 147.415 247.129C147.804 247.07 148.178 246.924 148.512 246.699C149.093 246.079 149.441 245.247 149.487 244.365C150.07 240.611 150.206 236.792 149.892 233.001C149.806 232.47 149.838 231.923 149.988 231.408C150.4 230.333 151.656 230.078 152.682 229.733C154.375 229.113 155.829 227.901 156.815 226.287C157.8 224.672 158.261 222.749 158.124 220.82C158.099 219.894 157.74 219.016 157.124 218.374C156.414 217.748 155.421 217.709 154.506 217.701C149.803 217.661 145.1 217.662 140.397 217.705C138.656 217.721 136.828 217.768 135.319 218.707C134.204 219.402 133.374 220.52 132.372 221.395C129.76 223.678 126.227 224.142 123.049 225.312C121.498 225.791 120.089 226.7 118.963 227.951C117.906 229.258 117.398 231.202 118.062 232.784C118.402 233.443 118.783 234.077 119.201 234.683C121.075 237.928 119.827 242.138 120.107 245.954C120.457 250.719 126.97 258.449 131.386 259.577C138.515 261.397 134.396 249.696 136.756 246.568Z" fill="#2F2E41"/>
<path d="M126.88 455.492C127.33 458.971 127.907 462.463 127.753 465.972C127.537 470.871 125.905 475.592 125.604 480.486C125.378 484.141 125.9 487.836 125.431 491.464C125.131 493.787 124.431 496.027 123.998 498.325C123.312 502.07 123.331 505.927 124.055 509.664C124.778 513.401 126.191 516.942 128.208 520.074C128.505 520.61 128.926 521.052 129.43 521.356C129.913 521.55 130.431 521.624 130.944 521.573C136.036 521.461 141.115 520.961 146.142 520.077C146.51 520.061 146.859 519.894 147.118 519.611C147.231 519.423 147.304 519.21 147.33 518.987C148.262 513.799 146.136 508.596 145.596 503.343C145.019 497.734 146.262 492.112 147.495 486.629C148.055 483.924 148.754 481.255 149.589 478.634C150.185 476.871 150.906 475.155 151.423 473.363C152.155 470.546 152.6 467.652 152.752 464.731C153.111 460.121 153.301 455.501 153.323 450.871C153.444 446.483 153.107 442.094 152.317 437.788C151.183 432.337 148.861 427.275 146.559 422.274C145.329 422.593 144.173 423.188 143.167 424.019C140.201 426.099 137.104 427.952 133.899 429.564C131.745 430.647 127.546 431.416 126.179 433.673C124.831 435.899 125.701 440.441 125.804 442.896C125.98 447.11 126.339 451.308 126.88 455.492Z" fill="#2F2E41"/>
<path opacity="0.1" d="M126.88 455.492C127.33 458.971 127.907 462.463 127.753 465.972C127.537 470.871 125.905 475.592 125.604 480.486C125.378 484.141 125.9 487.836 125.431 491.464C125.131 493.787 124.431 496.027 123.998 498.325C123.312 502.07 123.331 505.927 124.055 509.664C124.778 513.401 126.191 516.942 128.208 520.074C128.505 520.61 128.926 521.052 129.43 521.356C129.913 521.55 130.431 521.624 130.944 521.573C136.036 521.461 141.115 520.961 146.142 520.077C146.51 520.061 146.859 519.894 147.118 519.611C147.231 519.423 147.304 519.21 147.33 518.987C148.262 513.799 146.136 508.596 145.596 503.343C145.019 497.734 146.262 492.112 147.495 486.629C148.055 483.924 148.754 481.255 149.589 478.634C150.185 476.871 150.906 475.155 151.423 473.363C152.155 470.546 152.6 467.652 152.752 464.731C153.111 460.121 153.301 455.501 153.323 450.871C153.444 446.483 153.107 442.094 152.317 437.788C151.183 432.337 148.861 427.275 146.559 422.274C145.329 422.593 144.173 423.188 143.167 424.019C140.201 426.099 137.104 427.952 133.899 429.564C131.745 430.647 127.546 431.416 126.179 433.673C124.831 435.899 125.701 440.441 125.804 442.896C125.98 447.11 126.339 451.308 126.88 455.492Z" fill="black"/>
<path d="M103.227 381.178C100.904 387.951 104.319 395.27 107.286 401.741C114.595 417.685 119.671 434.698 124.72 451.638C125.098 452.906 125.476 454.291 125.055 455.544C124.691 456.434 124.1 457.193 123.351 457.732C119.87 460.595 115.437 461.615 111.29 463.113C107.283 464.561 103.444 466.509 99.8525 468.918C96.8475 470.934 94.0325 473.262 91.223 475.585L82.2795 482.982C81.7004 483.405 81.1945 483.936 80.7846 484.548C79.922 486.014 80.2753 487.927 80.7048 489.601C81.8421 494.034 83.3064 498.362 85.0836 502.541C85.376 503.457 85.9328 504.247 86.6716 504.795C88.0676 505.607 89.775 504.53 90.841 503.26C91.907 501.99 92.829 500.41 94.3316 499.865C95.8325 499.321 97.4844 499.98 99.052 499.742C101.587 499.356 103.27 496.828 105.098 494.886C112.564 486.955 125.029 487.53 133.242 480.517C134.43 479.367 135.687 478.304 137.005 477.335C138.393 476.446 139.968 475.959 141.408 475.173C145.79 472.784 148.545 467.845 150.02 462.779C151.496 457.713 151.917 452.365 152.977 447.179C153.525 444.498 154.247 441.845 154.49 439.112C154.647 436.57 154.596 434.017 154.338 431.485L151.374 391.789C151.133 388.557 150.891 385.321 150.423 382.119C141.621 382.459 132.826 382.843 124.02 382.956C117.012 383.045 109.876 383.576 103.227 381.178Z" fill="#2F2E41"/>
<path d="M99.9914 390.464C101.185 392.543 104.091 392.5 106.092 391.36C108.093 390.22 109.648 388.305 111.654 387.175C114.349 385.656 117.539 385.713 120.576 385.806C125.384 385.953 130.252 386.11 134.878 387.537C139.663 389.013 144.321 391.854 149.269 391.287C150.13 391.188 151.071 390.921 151.54 390.133C151.815 389.562 151.944 388.922 151.914 388.279L152.076 383.598C152.175 382.789 152.056 381.965 151.732 381.228C151.317 380.614 150.747 380.142 150.092 379.868C143.05 376.177 135.018 375.49 127.199 375.2C123.224 375.052 119.247 374.992 115.269 375.018C111.893 375.04 107.84 374.511 104.558 375.488C100.153 376.799 97.7567 386.572 99.9914 390.464Z" fill="#2F2E41"/>
<path d="M144.212 267.879C134.985 267.791 126.623 261.196 117.396 261.035C116.281 260.951 115.164 261.16 114.14 261.643C112.854 262.345 112.009 263.701 111.032 264.846C108.304 268.045 104.354 269.753 101.551 272.875C98.9228 275.803 97.4613 280.165 98.4988 284.09C99.5363 288.015 103.452 291.026 107.121 290.082C108.598 284.902 111.649 280.414 115.777 277.346C117.925 275.854 120.189 274.568 122.543 273.501C126.69 271.466 131.327 269.393 135.656 270.918C137.253 271.571 138.758 272.46 140.13 273.56L147.348 278.81C146.507 275.218 145.751 271.189 144.212 267.879Z" fill="#E1E0EC"/>
<path d="M106.058 286.609C104.832 288.265 106.597 290.663 106.327 292.764C106.148 294.16 105.087 295.226 104.645 296.551C104.187 297.925 104.43 299.446 104.257 300.893C104.082 301.946 103.825 302.981 103.487 303.986C102.709 306.988 102.167 310.055 101.865 313.156L100.25 326.216C99.9692 328.181 99.7987 330.163 99.7387 332.151C99.8201 333.636 99.7284 335.127 99.4657 336.588C99.1081 338.015 98.3162 339.264 97.7834 340.626C97.2507 341.987 97.0037 343.634 97.7234 344.891C95.3134 347.065 94.5968 351.334 96.2819 354.198C96.6027 354.644 96.8537 355.145 97.0247 355.679C97.1178 356.426 97.004 357.186 96.6976 357.863L95.0645 362.575C94.6465 363.781 94.5142 365.617 95.6764 365.892C94.7138 366.975 93.9638 368.257 93.4718 369.663C93.2331 370.368 93.1618 371.127 93.2643 371.87C93.3669 372.613 93.6401 373.317 94.0589 373.916C94.4647 374.301 94.8102 374.755 95.082 375.26C95.2418 375.964 95.2005 376.703 94.9638 377.381C94.7196 378.41 94.6725 379.482 94.8255 380.531C94.9784 381.581 95.3282 382.585 95.8532 383.483C96.3972 384.368 97.1676 385.063 98.0703 385.482C98.973 385.901 99.9689 386.026 100.936 385.842C104.203 385.044 107.139 383.785 110.433 384.439C117.525 385.848 124.64 387.264 131.509 389.638C139.349 392.349 146.94 396.323 155.133 397.157C155.673 397.277 156.233 397.182 156.713 396.891C157.131 396.463 157.39 395.885 157.444 395.265C158.288 390.979 159.132 386.694 159.976 382.408C160.997 377.658 161.774 372.85 162.304 368.006C162.592 364.88 162.675 361.737 162.757 358.597L163.409 333.601C163.715 329.917 163.261 326.206 162.081 322.735L158.327 309.758C156.184 302.353 151.27 295.786 149.52 288.26C148.412 283.497 147.594 278.386 144.624 274.674C140.39 269.381 133.065 268.558 126.653 269.468C123.756 269.879 120.835 270.588 118.329 272.215C115.432 274.096 113.298 277.059 111.233 279.954C109.531 282.339 107.799 284.257 106.058 286.609Z" fill="#EFEFEF"/>
<path d="M121.029 360.129C121.557 362.596 122.667 364.87 123.346 367.293C124.484 371.352 124.387 375.724 125.522 379.784C125.999 381.488 126.69 383.124 127.032 384.866C127.829 388.926 126.665 393.127 125.218 396.971C123.772 400.816 122.01 404.606 121.54 408.726C121.21 411.628 121.685 414.905 123.75 416.788C125.895 418.743 129.011 418.611 131.804 418.351C132.807 418.32 133.797 418.097 134.728 417.692C136.864 416.597 137.763 413.86 138.263 411.36C139.936 402.978 139.458 394.291 138.972 385.733L137.7 363.35C137.455 359.041 137.193 354.643 135.967 350.505C135.52 349 134.743 345.959 133.473 344.998C132.216 344.046 128.625 344.004 127.068 343.925C119.763 343.553 119.845 354.593 121.029 360.129Z" fill="#FFB9B9"/>
<path d="M129.122 277.489C127.63 276.643 125.751 277.007 124.309 277.949C122.917 278.981 121.697 280.264 120.703 281.74C117.479 286.001 114.067 290.89 114.545 296.373C114.724 298.429 115.451 300.375 115.944 302.37C118.105 311.118 115.715 320.369 115.99 329.42C116.148 334.649 117.199 339.793 118.246 344.901C118.459 345.944 118.801 347.151 119.733 347.502C120.432 347.766 121.188 347.427 121.881 347.141C124.46 346.109 127.232 345.765 129.96 346.137C132.689 346.51 135.295 347.588 137.557 349.281C139.287 348.281 138.639 345.121 138.251 343.04C137.099 336.856 138.663 330.477 140.563 324.514C142.462 318.551 144.735 312.595 145.05 306.296C145.407 299.159 143.221 292.193 141.065 285.438C140.594 283.964 140.08 282.417 138.989 281.399C138.055 280.646 136.984 280.117 135.847 279.845C133.557 279.112 131.238 278.688 129.122 277.489Z" fill="#E1E0EC"/>
</g>
<defs>
<clipPath id="clip0">
<rect width="680" height="559" fill="white"/>
</clipPath>
</defs>
</svg>
